<svg width="120" height="120" viewBox="0 0 120 120" fill="none" xmlns="http://www.w3.org/2000/svg" role="img" aria-label="Cloak logo">
  <defs>
    <linearGradient id="clk-bg" x1="20" y1="12" x2="100" y2="108" gradientUnits="userSpaceOnUse">
      <stop offset="0" stop-color="#40916C"/>
      <stop offset="0.5" stop-color="#2D6A4F"/>
      <stop offset="1" stop-color="#1B4332"/>
    </linearGradient>
    <radialGradient id="clk-shine" cx="0.35" cy="0.22" r="0.55">
      <stop offset="0" stop-color="#FFFFFF" stop-opacity="0.22"/>
      <stop offset="1" stop-color="#FFFFFF" stop-opacity="0"/>
    </radialGradient>
    <linearGradient id="clk-mark" x1="60" y1="26" x2="60" y2="94" gradientUnits="userSpaceOnUse">
      <stop offset="0" stop-color="#FFFFFF"/>
      <stop offset="1" stop-color="#E8F5EE"/>
    </linearGradient>
  </defs>
  <rect x="4" y="4" width="112" height="112" rx="26" fill="url(#clk-bg)"/>
  <rect x="4" y="4" width="112" height="112" rx="26" fill="url(#clk-shine)"/>
  <path
    d="M60 28 C78 28 90 48 90 72 V96 C90 98 88 100 86 100 H34 C32 100 30 98 30 96 V72 C30 48 42 28 60 28 Z"
    fill="url(#clk-mark)"
  />
  <path
    d="M60 28 C78 28 90 48 90 72 V96 C90 98 88 100 86 100 H34 C32 100 30 98 30 96 V72 C30 48 42 28 60 28 Z"
    fill="none"
    stroke="#FFFFFF"
    stroke-opacity="0.2"
    stroke-width="1"
  />
  <path
    d="M48 96 C48 58 52 38 60 32 C68 38 72 58 72 96"
    stroke="#95D5B2"
    stroke-opacity="0.5"
    stroke-width="2"
    stroke-linecap="round"
    fill="none"
  />
  <circle cx="60" cy="58" r="8" fill="#1B4332"/>
  <path
    d="M55 63 H65 L62.2 82 C62.2 83.3 61.2 84.2 60 84.2 C58.8 84.2 57.8 83.3 57.8 82 Z"
    fill="#1B4332"
  />
</svg>
